<svg width="84" height="25" viewBox="0 0 84 25" fill="none" xmlns="http://www.w3.org/2000/svg">
<path d="M2.25157e-05 24.66V21.24H2.73602V3.42003H0.0720225V3.19481e-05H9.57602V21.24H12.06V24.66H2.25157e-05ZM20.052 24.948C18.564 24.948 17.34 24.696 16.38 24.192C15.444 23.664 14.736 22.932 14.256 21.996C13.776 21.036 13.464 19.908 13.32 18.612L13.176 17.1C13.056 15.876 12.768 15.06 12.312 14.652C11.88 14.22 11.148 14.004 10.116 14.004H9.57602V13.14L14.652 13.104C16.62 13.104 18.012 13.584 18.828 14.544C19.644 15.48 20.052 16.872 20.052 18.72V19.404C20.052 19.86 20.136 20.22 20.304 20.484C20.472 20.724 20.772 20.844 21.204 20.844C21.588 20.844 21.876 20.724 22.068 20.484C22.26 20.22 22.356 19.86 22.356 19.404V14.544H26.316V18.792C26.316 20.664 25.812 22.164 24.804 23.292C23.82 24.396 22.236 24.948 20.052 24.948ZM9.57602 14.004V10.476H14.508C15.78 10.476 16.776 10.188 17.496 9.61203C18.24 9.03603 18.612 8.17203 18.612 7.02003C18.612 5.84403 18.24 4.98003 17.496 4.42803C16.776 3.85203 15.78 3.56403 14.508 3.56403H9.57602V3.19481e-05H16.704C19.368 3.19481e-05 21.504 0.552032 23.112 1.65603C24.72 2.73603 25.524 4.38003 25.524 6.58803C25.524 8.79603 24.732 10.452 23.148 11.556C21.564 12.66 19.464 13.212 16.848 13.212H14.184L13.284 14.004H9.57602ZM28.7578 24.66V21.24H31.4938V3.49203H28.8298V0.108033H38.3338V24.66H28.7578ZM38.3338 24.66V21.06H43.0858C44.2858 21.06 45.2458 20.76 45.9658 20.16C46.6858 19.536 47.0458 18.636 47.0458 17.46C47.0458 16.332 46.6858 15.456 45.9658 14.832C45.2458 14.208 44.2858 13.896 43.0858 13.896H38.3338V11.7H45.3538C48.0178 11.7 50.1178 12.192 51.6538 13.176C53.1898 14.16 53.9578 15.756 53.9578 17.964C53.9578 20.244 53.1898 21.936 51.6538 23.04C50.1178 24.12 48.0298 24.66 45.3898 24.66H38.3338ZM38.3338 12.24V10.368H42.0418C43.1938 10.368 44.0938 10.08 44.7418 9.50403C45.4138 8.92803 45.7498 8.10003 45.7498 7.02003C45.7498 5.89203 45.4138 5.05203 44.7418 4.50003C44.0938 3.92403 43.1938 3.63603 42.0418 3.63603H38.3338V0.108033H44.1658C46.7098 0.108033 48.7498 0.612033 50.2858 1.62003C51.8218 2.62803 52.5898 4.20003 52.5898 6.33603C52.5898 8.37603 51.8338 9.87603 50.3218 10.836C48.8098 11.772 46.7818 12.24 44.2378 12.24H38.3338ZM65.9323 24.66V21.06H68.6683C70.0843 21.06 71.3443 20.712 72.4483 20.016C73.5523 19.296 74.4163 18.288 75.0403 16.992C75.6643 15.672 75.9763 14.136 75.9763 12.384C75.9763 10.608 75.6643 9.07203 75.0403 7.77603C74.4163 6.45603 73.5523 5.43603 72.4483 4.71603C71.3443 3.99603 70.0843 3.63603 68.6683 3.63603H65.9323V0.108033H69.3523C72.1363 0.108033 74.5723 0.588033 76.6603 1.54803C78.7483 2.50803 80.3683 3.90003 81.5203 5.72403C82.6723 7.54803 83.2483 9.76803 83.2483 12.384C83.2483 15 82.6723 17.22 81.5203 19.044C80.3683 20.868 78.7483 22.26 76.6603 23.22C74.5723 24.18 72.1363 24.66 69.3523 24.66H65.9323ZM56.3203 24.66V21.24H59.0563V3.49203H56.3923V0.108033H65.9323V24.66H56.3203Z" fill="url(#paint0_linear_39_3)"/>
<defs>
<linearGradient id="paint0_linear_39_3" x1="41.7386" y1="-10.34" x2="41.7386" y2="39.66" gradientUnits="userSpaceOnUse">
<stop stop-color="#FF00CC"/>
<stop offset="0.5" stop-color="#333399"/>
</linearGradient>
</defs>
</svg>
